# xmcd
# 
# Track frame offsets:
#     150
#     23642
#     44722
# 
# Disc length: 907
# 
# Revision: 1
# Processed by: cddbd v1.5.2PL0 Copyright (c) Steve Scherf et al.
# Submitted via: BonkEnc v1.0.6
# 
DISCID=1f038903
DTITLE=久保田　利伸 - ふたりのオルケスタ
DYEAR=1993
DGENRE=JPop
TTITLE0=ふたりのオルケスタ
TTITLE1=Our Masterpiece
TTITLE2=ふたりのオルケスタ(オリジナルカラオケ)
EXTD=YEAR: 1993
EXTT0=
EXTT1=
EXTT2=
PLAYORDER=
